[Header]
FileType HTR
DataType HTRS
FileVersion 1
NumSegments 22
NumFrames 4
DataFrameRate 24
EulerRotationOrder ZYX
CalibrationUnits mm
RotationUnits Degrees
GlobalAxisofGravity Y
BoneLengthAxis Y
ScaleFactor 1.0
[SegmentNames&Hierarchy]
reference	GLOBAL
Hips	reference
Spine	Hips
Spine1	Spine
Neck	Spine1
Head	Neck
LeftShoulder	Spine1
LeftArm	LeftShoulder
LeftForeArm	LeftArm
LeftHand	LeftForeArm
RightShoulder	Spine1
RightArm	RightShoulder
RightForeArm	RightArm
RightHand	RightForeArm
LeftUpLeg	Hips
LeftLeg	LeftUpLeg
LeftFoot	LeftLeg
LeftToeBase	LeftFoot
RightUpLeg	Hips
RightLeg	RightUpLeg
RightFoot	RightLeg
RightToeBase	RightFoot
[BasePosition]
reference	0	0	0	0	0	0	1
Hips	0	0	0	0	0	0	1
Spine	0	0	0	0	-0	90	1
Spine1	0	0	0	0	0	0	1
Neck	0	0	0	-7.352430803	-7.352430803	90	1
Head	0	0	0	0	-0	90	1
LeftShoulder	0	0	0	0	0	0	1
LeftArm	0	0	0	0	0	0	1
LeftForeArm	0	0	0	0	0	0	1
LeftHand	0	0	0	0	0	0	1
RightShoulder	0	0	0	0	-0	180	1
RightArm	0	0	0	0	-0	180	1
RightForeArm	0	0	0	0	-0	180	1
RightHand	0	0	0	0	-0	180	1
LeftUpLeg	0	0	0	0	-0	-90	1
LeftLeg	0	0	0	0	-0	-90	1
LeftFoot	0	0	0	66.57150701	-66.57150701	-90	1
LeftToeBase	0	0	0	0	-90	0	1
RightUpLeg	0	0	0	0	-0	-90	1
RightLeg	0	0	0	0	-0	-90	1
RightFoot	0	0	0	66.57150701	-66.57150701	-90	1
RightToeBase	0	0	0	0	-90	0	1
[reference]
37	0	0	0	0	-0	0	1.0
38	0	0	0	0	-0	0	1.0
39	0	0	0	0	-0	0	1.0
40	0	0	0	0	-0	0	1.0
[Hips]
37	2.56366992	8.059700012	-0.009899999946	7.857437134	-60.63245392	-14.99134827	1.0
38	2.448221207	8.358510971	-0.246075511	14.37691212	-50.93819046	-22.44472694	1.0
39	2.305390596	8.762900352	-0.5096514821	26.05800056	-43.22695923	-33.58520126	1.0
40	2.127499342	9.183639526	-0.6078592539	38.35440445	-38.05036545	-47.15176773	1.0
[Spine]
37	0	0.7478299737	0	-3.381407738	-2.664438009	-92.63999176	1.0
38	0	0.7478299737	0	-0.1847439855	-9.34271431	-94.27535248	1.0
39	0	0.7478299737	0	0.8866715431	-14.4209795	-93.82998657	1.0
40	0	0.7478299737	0	-1.536445856	-16.34097481	-89.50704956	1.0
[Spine1]
37	0	2.049309969	0	6.662951946	-0.05229539052	-13.78621864	1.0
38	0	2.049309969	0	7.347100258	-2.529471397	-9.598268509	1.0
39	0	2.049309969	0	7.777385712	-4.569731236	-0.1849986911	1.0
40	0	2.049309969	0	10.27890778	-6.168820381	6.203674793	1.0
[Neck]
37	0	2.231709957	0	11.76476097	-6.176928043	-77.15348816	1.0
38	0	2.231709957	0	12.3378315	-7.306712627	-67.97908783	1.0
39	0	2.231709957	0	10.89599991	-6.889310837	-59.35131454	1.0
40	0	2.231709957	0	11.3181715	-5.665291786	-53.90216827	1.0
[Head]
37	0	1.413589954	0.1823999882	-9.772937775	-11.71763992	-81.26321411	1.0
38	0	1.413589954	0.1823999882	-10.30850792	-10.97695446	-84.8272934	1.0
39	0	1.413589954	0.1823999882	-11.87575817	-9.154815674	-90.52393341	1.0
40	0	1.413589954	0.1823999882	-14.00107956	-6.771751404	-96.35106659	1.0
[LeftShoulder]
37	0.3649300039	1.825889945	-0.04271000251	-11.94531631	-10.99836445	10.67605019	1.0
38	0.3649300039	1.825889945	-0.04271000251	-14.7036314	-18.36890793	12.26712894	1.0
39	0.3649300039	1.825889945	-0.04271000251	-15.08084488	-25.92237854	12.69430256	1.0
40	0.3649300039	1.825889945	-0.04271000251	-12.3632946	-26.70676422	10.58411312	1.0
[LeftArm]
37	1.24003005	0	0	45.56406403	-12.1835928	-52.36380386	1.0
38	1.24003005	0	0	47.79829788	-20.84369278	-56.75871658	1.0
39	1.24003005	0	0	50.63332748	-25.60250092	-62.67269516	1.0
40	1.24003005	0	0	54.1404953	-28.93190765	-67.32455444	1.0
[LeftForeArm]
37	2.847419977	0	0	175.4927979	-57.43620682	-177.804184	1.0
38	2.847419977	0	0	174.2041931	-58.47859955	-172.4236298	1.0
39	2.847419977	0	0	189.3545227	-60.15315628	-175.3480835	1.0
40	2.847419977	0	0	202.9965973	-62.52122498	-179.6596375	1.0
[LeftHand]
37	2.258270025	0	0	-0.1280480772	-9.621153831	-4.378471851	1.0
38	2.258270025	0	0	7.761008739	-9.803445816	-0.7403582931	1.0
39	2.258270025	0	0	2.48325038	-7.07063961	4.051909447	1.0
40	2.258270025	0	0	-1.79705584	2.521353245	15.82986259	1.0
[RightShoulder]
37	-0.3646599948	1.825889945	-0.04271000251	-6.936003685	5.464780807	170.1713562	1.0
38	-0.3646599948	1.825889945	-0.04271000251	-5.044209003	1.547748804	171.8017731	1.0
39	-0.3646599948	1.825889945	-0.04271000251	-4.080305099	-2.209010124	174.5487366	1.0
40	-0.3646599948	1.825889945	-0.04271000251	-1.750158668	-1.650131226	177.3864746	1.0
[RightArm]
37	-1.24003005	0	0	45.12787247	-3.080881834	-114.1129532	1.0
38	-1.24003005	0	0	47.38052368	0.2531005442	-119.8633575	1.0
39	-1.24003005	0	0	46.71539307	5.041714668	-130.0650024	1.0
40	-1.24003005	0	0	41.22354126	12.50878143	-143.9634247	1.0
[RightForeArm]
37	-2.847419977	0	0	-138.4159698	54.29301453	7.923873901	1.0
38	-2.847419977	0	0	-140.1891785	51.3282547	6.058177948	1.0
39	-2.847419977	0	0	-140.038147	49.42240906	5.406366348	1.0
40	-2.847419977	0	0	-136.7819519	52.07723618	3.648282051	1.0
[RightHand]
37	-2.258270025	0	0	23.56802559	14.75699711	159.8776093	1.0
38	-2.258270025	0	0	24.47080231	14.99481583	159.669342	1.0
39	-2.258270025	0	0	25.09247971	17.65518951	154.8119965	1.0
40	-2.258270025	0	0	24.1646328	14.91613579	154.1436462	1.0
[LeftUpLeg]
37	0.9119900465	0	0	-18.45954704	12.1127882	94.632164	1.0
38	0.9119900465	0	0	-19.54777336	14.11424637	98.34128571	1.0
39	0.9119900465	0	0	-21.40938187	16.52098846	108.0827408	1.0
40	0.9119900465	0	0	-20.73518753	33.94852448	115.8548126	1.0
[LeftLeg]
37	0	-4.371409893	0	50.98047256	-8.314905167	58.16901398	1.0
38	0	-4.371409893	0	51.54154968	-19.27769852	57.81152725	1.0
39	0	-4.371409893	0	42.23373795	-11.88839626	68.90046692	1.0
40	0	-4.371409893	0	31.88949203	-3.881967545	77.22108459	1.0
[LeftFoot]
37	0	-3.918009996	0	-96.6102829	132.5650024	-36.11062622	1.0
38	0	-3.918009996	0	-90.2693634	132.9932709	-33.31499863	1.0
39	0	-3.918009996	0	-97.11078644	128.1336365	-47.14031601	1.0
40	0	-3.918009996	0	-105.4524689	127.2339783	-62.28870392	1.0
[LeftToeBase]
37	0	-0.5927900076	1.367989898	0	0	0	1.0
38	0	-0.5927900076	1.367989898	0	0	0	1.0
39	0	-0.5927900076	1.367989898	0	0	0	1.0
40	0	-0.5927900076	1.367989898	0	0	0	1.0
[RightUpLeg]
37	-0.9119900465	0	0	-27.82270622	-35.16207886	115.1367798	1.0
38	-0.9119900465	0	0	-48.76316833	-26.18423462	122.140564	1.0
39	-0.9119900465	0	0	-64.86248016	-12.71910763	117.0584946	1.0
40	-0.9119900465	0	0	-77.35319519	-5.43134737	102.278595	1.0
[RightLeg]
37	0	-4.371409893	0	95.88517761	20.38528252	60.51966858	1.0
38	0	-4.371409893	0	114.5910034	25.27233315	68.90512085	1.0
39	0	-4.371409893	0	125.0220184	21.06697083	75.84248352	1.0
40	0	-4.371409893	0	120.6777573	17.2954216	74.4723587	1.0
[RightFoot]
37	0	-3.918009996	0	58.14810944	56.54327774	104.2216492	1.0
38	0	-3.918009996	0	57.95163727	58.13365936	100.7965546	1.0
39	0	-3.918009996	0	57.83325958	59.86804199	93.68706512	1.0
40	0	-3.918009996	0	79.27342224	59.71966553	103.8173904	1.0
[RightToeBase]
37	0	-0.5927900076	1.367989898	0	0	0	1.0
38	0	-0.5927900076	1.367989898	0	0	0	1.0
39	0	-0.5927900076	1.367989898	0	0	0	1.0
40	0	-0.5927900076	1.367989898	0	0	0	1.0
[EndOfFile]
